<svg width="48" height="38" viewBox="0 0 48 38" fill="none" xmlns="http://www.w3.org/2000/svg">
<path d="M0 31.3454C0 32.9179 0.624662 34.426 1.73657 35.5379C2.84847 36.6498 4.35654 37.2744 5.92902 37.2744H41.5031C43.0756 37.2744 44.5837 36.6498 45.6956 35.5379C46.8075 34.426 47.4321 32.9179 47.4321 31.3454V15.0406H0V31.3454ZM6.98777 23.2989C6.98777 22.4565 7.32241 21.6486 7.91807 21.053C8.51374 20.4573 9.32163 20.1227 10.164 20.1227H15.246C16.0884 20.1227 16.8963 20.4573 17.492 21.053C18.0877 21.6486 18.4223 22.4565 18.4223 23.2989V25.4164C18.4223 26.2588 18.0877 27.0667 17.492 27.6624C16.8963 28.258 16.0884 28.5927 15.246 28.5927H10.164C9.32163 28.5927 8.51374 28.258 7.91807 27.6624C7.32241 27.0667 6.98777 26.2588 6.98777 25.4164V23.2989ZM41.5031 0.00634766H5.92902C4.35654 0.00634766 2.84847 0.63101 1.73657 1.74292C0.624662 2.85482 0 4.36289 0 5.93536V8.68812H47.4321V5.93536C47.4321 4.36289 46.8075 2.85482 45.6956 1.74292C44.5837 0.63101 43.0756 0.00634766 41.5031 0.00634766Z" fill="url(#paint0_linear_89_131)"/>
<defs>
<linearGradient id="paint0_linear_89_131" x1="10.6258" y1="11.086" x2="47.6861" y2="11.6547" gradientUnits="userSpaceOnUse">
<stop offset="0.254029" stop-color="#FF0000"/>
<stop offset="1" stop-color="#CB3101"/>
</linearGradient>
</defs>
</svg>
