<svg width="41" height="45" viewBox="0 0 41 45" fill="none" xmlns="http://www.w3.org/2000/svg">
<path d="M38.2163 0.00634766H33.2162C32.5532 0.00634766 31.9173 0.269743 31.4484 0.73859C30.9796 1.20744 30.7162 1.84333 30.7162 2.50638V44.9869H40.7163V2.50638C40.7163 1.84333 40.4529 1.20744 39.9841 0.73859C39.5152 0.269743 38.8793 0.00634766 38.2163 0.00634766ZM23.2161 15.0065H18.216C17.553 15.0065 16.9171 15.2699 16.4482 15.7388C15.9794 16.2076 15.716 16.8435 15.716 17.5066V44.9869H25.7161V17.5066C25.7161 16.8435 25.4527 16.2076 24.9839 15.7388C24.515 15.2699 23.8791 15.0065 23.2161 15.0065ZM8.21591 30.0067H3.21585C2.5528 30.0067 1.91691 30.2701 1.44806 30.739C0.979216 31.2078 0.71582 31.8437 0.71582 32.5067V44.9869H10.7159V32.5067C10.7159 31.8437 10.4525 31.2078 9.9837 30.739C9.51485 30.2701 8.87896 30.0067 8.21591 30.0067Z" fill="url(#paint0_linear_89_129)"/>
<defs>
<linearGradient id="paint0_linear_89_129" x1="9.67681" y1="13.3789" x2="40.9343" y2="13.714" gradientUnits="userSpaceOnUse">
<stop offset="0.254029" stop-color="#FF0000"/>
<stop offset="1" stop-color="#CB3101"/>
</linearGradient>
</defs>
</svg>
