<svg width="235" height="235" viewBox="0 0 235 235" fill="none" xmlns="http://www.w3.org/2000/svg">
<rect width="235" height="235" rx="37" fill="black"/>
<path fill-rule="evenodd" clip-rule="evenodd" d="M192.664 117.5C192.664 159.197 158.862 193 117.164 193C80.3254 193 49.6485 166.615 43 131.713C44.1426 132.523 45.5389 133 47.0466 133H79.7362C85.821 147.677 100.287 158 117.164 158C139.532 158 157.664 139.868 157.664 117.5C157.664 95.1323 139.532 77 117.164 77C100.673 77 86.4839 86.8565 80.1667 101H47.0466C45.6385 101 44.3275 101.416 43.2297 102.131C50.3286 67.8036 80.7333 42 117.164 42C158.862 42 192.664 75.8027 192.664 117.5ZM117.664 137C127.605 137 135.664 128.941 135.664 119C135.664 109.059 127.605 101 117.664 101C107.723 101 99.6643 109.059 99.6643 119C99.6643 128.941 107.723 137 117.664 137Z" fill="#FF0000"/>
</svg>
