<svg width="48" height="47" viewBox="0 0 48 47" fill="none" xmlns="http://www.w3.org/2000/svg">
<path d="M21.7004 0.00634766V4.83279C17.597 5.35396 13.7831 7.22394 10.8583 10.1488C7.93341 13.0736 6.06344 16.8875 5.54227 20.9909H0.71582V25.6541H5.54227C6.06344 29.7575 7.93341 33.5714 10.8583 36.4962C13.7831 39.4211 17.597 41.2911 21.7004 41.8122V46.6387H26.3636V41.8122C30.467 41.2911 34.2809 39.4211 37.2057 36.4962C40.1306 33.5714 42.0005 29.7575 42.5217 25.6541H47.3481V20.9909H42.5217C42.0005 16.8875 40.1306 13.0736 37.2057 10.1488C34.2809 7.22394 30.467 5.35396 26.3636 4.83279V0.00634766M21.7004 9.51934V13.996H26.3636V9.54266C32.1926 10.4986 36.8559 15.1619 37.8352 20.9909H33.3584V25.6541H37.8118C36.8559 31.4832 32.1926 36.1464 26.3636 37.1257V32.649H21.7004V37.1024C15.8713 36.1464 11.2081 31.4832 10.2288 25.6541H14.7055V20.9909H10.2521C11.2081 15.1619 15.8713 10.4986 21.7004 9.51934ZM24.032 20.9909C23.4136 20.9909 22.8205 21.2365 22.3833 21.6738C21.946 22.1111 21.7004 22.7041 21.7004 23.3225C21.7004 23.9409 21.946 24.5339 22.3833 24.9712C22.8205 25.4085 23.4136 25.6541 24.032 25.6541C24.6504 25.6541 25.2434 25.4085 25.6807 24.9712C26.1179 24.5339 26.3636 23.9409 26.3636 23.3225C26.3636 22.7041 26.1179 22.1111 25.6807 21.6738C25.2434 21.2365 24.6504 20.9909 24.032 20.9909Z" fill="url(#paint0_linear_89_127)"/>
<defs>
<linearGradient id="paint0_linear_89_127" x1="11.1625" y1="13.87" x2="47.6011" y2="14.3093" gradientUnits="userSpaceOnUse">
<stop offset="0.254029" stop-color="#FF0000"/>
<stop offset="1" stop-color="#CB3101"/>
</linearGradient>
</defs>
</svg>
